<?xml version="1.0" encoding="utf-8"?>
<!-- Generator: Adobe Illustrator 25.1.0, SVG Export Plug-In . SVG Version: 6.00 Build 0)  -->
<svg version="1.1" id="Layer_1" xmlns="http://www.w3.org/2000/svg" xmlns:xlink="http://www.w3.org/1999/xlink" x="0px" y="0px"
	 viewBox="0 0 1920 1080" style="enable-background:new 0 0 1920 1080;" xml:space="preserve">
<style type="text/css">
	.st0{fill:#F9F9F9;}
	.st1{fill:#1DB4D9;}
	.st2{fill:#E67C5C;}
</style>
<rect x="294.7" y="497" class="st0" width="1149.3" height="156"/>
<g>
	<path class="st1" d="M424.6,621.5c-4.9,2-14.7,5.2-26.2,5.2c-12.9,0-23.6-3.7-31.9-12.6c-7.3-7.9-11.9-20.6-11.9-35.4
		c0.1-28.4,17.6-49.1,46.2-49.1c9.9,0,17.6,2.4,21.3,4.4l-2.7,10c-4.6-2.3-10.3-4.1-18.9-4.1c-20.8,0-34.3,14.4-34.3,38.2
		c0,24.1,13,38.4,32.9,38.4c7.2,0,12.2-1.1,14.7-2.5v-28.4h-17.4v-9.9h28.1L424.6,621.5L424.6,621.5z"/>
	<path class="st1" d="M514.4,577.2c0,32.7-17.9,50.1-39.7,50.1c-22.5,0-38.4-19.5-38.4-48.3c0-30.2,16.8-50,39.7-50
		C499.4,529,514.4,548.9,514.4,577.2z M448.2,578.7c0,20.3,9.9,38.5,27.2,38.5c17.5,0,27.4-17.9,27.4-39.5
		c0-18.9-8.9-38.7-27.2-38.7C457.3,539.1,448.2,557.8,448.2,578.7z"/>
	<path class="st1" d="M528.8,530.6h11v45.9h0.4c2.3-3.7,4.6-7.1,6.7-10.2l26.1-35.7h13.7l-31,40.4l33.3,54.8h-13L547.9,579
		l-8.1,10.4v36.3h-11L528.8,530.6L528.8,530.6z"/>
	<path class="st1" d="M597.4,530.6h11v84.8h36.5v10.3h-47.5V530.6z"/>
	<path class="st1" d="M701.4,581.1h-33.2v34.3h37v10.3h-48v-95.1h46.1v10.3h-35.1V571h33.2V581.1z"/>
	<path class="st1" d="M733.3,595.8l-8.9,29.9H713l29-95.1h13.3l29.1,95.1h-11.8l-9.1-29.9H733.3z M761.3,586.2l-8.4-27.4
		c-1.9-6.2-3.2-11.9-4.4-17.4h-0.3c-1.3,5.6-2.7,11.4-4.3,17.2l-8.4,27.5h25.8V586.2z"/>
	<path class="st1" d="M797.1,625.7v-95.1h12l27.4,48.1c6.3,11.1,11.3,21.2,15.3,30.9l0.3-0.1c-1-12.7-1.3-24.3-1.3-39.1v-39.8h10.4
		v95.1H850l-27.1-48.3c-6-10.6-11.7-21.5-16-31.8l-0.4,0.1c0.6,12,0.9,23.4,0.9,39.2v40.6h-10.3V625.7z"/>
	<path class="st2" d="M947.1,622.6c-4.1,2.3-12.2,4.5-22.5,4.5c-24.1,0-42.2-16.9-42.2-48.1c0-29.8,18.1-50,44.6-50
		c10.6,0,17.4,2.5,20.3,4.2l-2.7,10c-4.2-2.3-10.1-4-17.2-4c-20,0-33.3,14.3-33.3,39.2c0,23.3,12,38.2,32.8,38.2
		c6.7,0,13.6-1.6,18-4L947.1,622.6z"/>
	<path class="st2" d="M975.2,595.8l-8.9,29.9h-11.4l29-95.1h13.3l29.1,95.1h-11.8l-9.1-29.9H975.2z M1003.2,586.2l-8.4-27.4
		c-1.9-6.2-3.2-11.9-4.4-17.4h-0.3c-1.3,5.6-2.7,11.4-4.3,17.2l-8.4,27.5h25.8V586.2z"/>
	<path class="st2" d="M1038.9,531.9c5.6-1.3,13.6-2,21.2-2c11.8,0,19.4,2.4,24.7,7.8c4.3,4.2,6.7,10.7,6.7,18.1
		c0,12.6-7.1,20.9-16.1,24.3v0.4c6.6,2.5,10.5,9.3,12.5,19.2c2.8,13.3,4.8,22.4,6.6,26.1h-11.4c-1.4-2.7-3.3-10.9-5.7-22.7
		c-2.5-13.1-7.1-18.1-17.1-18.5h-10.4v41.2h-11L1038.9,531.9L1038.9,531.9z M1049.9,575.2h11.3c11.8,0,19.3-7.2,19.3-18.1
		c0-12.3-8-17.6-19.6-17.8c-5.3,0-9.1,0.6-10.9,1.1v34.8H1049.9z"/>
	<path class="st2" d="M1123,625.7l-21.7-95.1h11.7l10.1,48.1c2.5,11.9,4.8,23.7,6.3,32.9h0.3c1.4-9.5,4.1-20.7,7-33l11.4-48h11.5
		l10.4,48.3c2.4,11.3,4.7,22.6,6,32.6h0.3c1.8-10.4,4.2-21,6.8-32.9l11.3-48h11.3l-24.2,95.1H1170l-10.8-49.5
		c-2.7-12.1-4.4-21.5-5.6-31h-0.3c-1.5,9.5-3.4,18.8-6.6,31l-12.2,49.5L1123,625.7L1123,625.7z"/>
	<path class="st2" d="M1222.9,595.8l-8.9,29.9h-11.4l29-95.1h13.3l29.1,95.1h-11.8l-9.1-29.9H1222.9z M1250.8,586.2l-8.4-27.4
		c-1.9-6.2-3.2-11.9-4.4-17.4h-0.3c-1.3,5.6-2.7,11.4-4.3,17.2l-8.4,27.5h25.8V586.2z"/>
	<path class="st2" d="M1285.1,610.8c4.9,3.4,12.2,6.2,19.8,6.2c11.3,0,17.9-6.6,17.9-16.2c0-8.9-4.6-14-16.1-18.9
		c-13.9-5.5-22.5-13.5-22.5-27c0-14.8,11-25.8,27.6-25.8c8.7,0,15.1,2.3,18.9,4.7l-3,10c-2.8-1.7-8.5-4.5-16.2-4.5
		c-11.7,0-16.1,7.8-16.1,14.3c0,8.9,5.2,13.3,17,18.3c14.4,6.2,21.8,14,21.8,27.9c0,14.7-9.8,27.4-29.9,27.4
		c-8.2,0-17.2-2.7-21.8-6.1L1285.1,610.8z"/>
	<path class="st2" d="M1360.1,530.6v39.8h41.3v-39.8h11.1v95.1h-11.1v-44.6h-41.3v44.6h-11v-95.1H1360.1z"/>
</g>
<rect x="1483" y="497" class="st0" width="75" height="156"/>
</svg>
